# xmcd CD database file
#
# Track frame offsets:
#	150
#	45223
#	79631
#	255133
#
# Disc length: 3537 seconds
#
# Revision: 0
# Processed by: cddbd v1.5.2PL0 Copyright (c) Steve Scherf et al.
# Submitted via: CDex 1.70beta2
#
DISCID=1a0dcf04
DTITLE=Tom Kenyon - The Golden Orb
DYEAR=2008
DGENRE=New Age
TTITLE0=Instructions
TTITLE1=opening Chant to Kuan Yin
TTITLE2=Taoist Healing Meditation
TTITLE3=Closing Chant to Kuan Yin
EXTD=YEAR: 2008
EXTT0=
EXTT1=
EXTT2=
EXTT3=
PLAYORDER=
